<?xml version="1.0" encoding="UTF-8"?>
<svg width="34px" height="40px" viewBox="0 0 34 40" version="1.1" xmlns="http://www.w3.org/2000/svg" xmlns:xlink="http://www.w3.org/1999/xlink">
    <!-- Generator: Sketch 60.1 (88133) - https://sketch.com -->
    <title>拖拽手势</title>
    <desc>Created with Sketch.</desc>
    <g id="页面1" stroke="none" stroke-width="1" fill="none" fill-rule="evenodd">
        <g id="组织机构视图管理探索组织机构" transform="translate(-570.000000, -379.000000)">
            <g id="拖拽手势" transform="translate(571.000000, 380.000000)">
                <g id="编组" transform="translate(0.000000, 7.161863)" fill-rule="nonzero">
                    <path d="M21.6960472,17.4442749 L21.6960472,14.9676186 C21.6960472,11.6893392 16.8759939,11.6893392 16.8759939,14.9676186 L16.8759939,12.4909623 C16.8759939,9.21268293 12.0559406,9.21268293 12.0559406,12.4909623 L12.0559406,2.57237251 C12.0559406,-0.705906874 7.23588726,-0.705906874 7.23588726,2.57237251 C7.23588726,9.52376053 7.23588726,13.1131175 7.23588726,21.8113259 C5.02911586,19.5380665 2.86880281,16.3913969 0.72010435,18.6048337 C-0.220677139,19.5739601 -0.220677139,21.1532772 0.72010435,22.110439 L7.52625191,29.1216497 C8.0489083,29.6600532 8.75739806,29.8634501 9.44265865,29.8036275 C10.1743776,29.8634501 23.356933,29.8514856 24.088652,29.8514856 C25.4127148,29.8514856 26.492955,28.7387849 26.492955,27.3748293 C26.492955,23.8094013 26.492955,20.8900576 26.492955,17.4562395 C26.5161005,14.1659956 21.6960472,14.1659956 21.6960472,17.4442749 Z" id="路径" fill="#F1E9DA"></path>
                    <path d="M24.1002665,27.3628647 C23.3685476,27.3628647 10.1859922,27.4226874 9.45427324,27.3628647 C8.76901265,27.4226874 8.06052288,27.1833969 7.5378665,26.6449933 L0.731718936,19.6218182 C0.580729314,19.4662794 0.49942721,19.2868115 0.40651052,19.1073437 C-0.139375035,20.052541 -0.0580729314,21.2848869 0.731718936,22.0984745 L7.5378665,29.1096851 C8.06052288,29.6480887 8.76901265,29.8514856 9.45427324,29.791663 C10.1859922,29.8514856 23.3685476,29.8395211 24.1002665,29.8395211 C25.4243294,29.8395211 26.5045787,28.7268204 26.5045787,27.3628647 C26.5045787,26.5014191 26.5045787,25.6878315 26.5045787,24.8862084 C26.5161005,26.2501641 25.435944,27.3628647 24.1002665,27.3628647 Z" id="路径" fill="#E5D5B6"></path>
                    <path d="M9.2335961,27.3628647 L5.70276187,23.7017206 C7.25911643,25.0537118 9.66333579,23.917082 9.66333579,21.8113259 L9.66333579,12.4909623 C9.66333579,15.7692417 14.4833891,15.7692417 14.4833891,12.4909623 L14.4833891,14.9676186 C14.4833891,18.245898 19.3034424,18.245898 19.3034424,14.9676186 L19.3034424,17.4442749 C19.3034424,20.7225543 24.1234957,20.7225543 24.1234957,17.4442749 L24.1234957,27.3628647 C9.51234617,27.3628647 9.2335961,27.3628647 9.2335961,27.3628647 Z" id="路径" fill="#FFFFFF"></path>
                </g>
                <g id="编组" stroke="#6D7278" stroke-linecap="round" stroke-linejoin="round" stroke-width="2">
                    <g transform="translate(21.758153, 4.990619)" id="路径">
                        <polyline points="4.94822511 9.85053158 9.79116883 4.91932458 4.94822511 0"></polyline>
                        <line x1="0.0935834536" y1="4.94101001" x2="9.79116883" y2="4.94101001"></line>
                    </g>
                    <path d="M2.8776912,16.8849281 C-0.912438672,13.0350219 -0.912438672,6.79674797 2.8776912,2.9587242 C6.66782107,-0.879299562 12.8092352,-0.891181989 16.5876671,2.9587242 C20.3660991,6.80863039 20.377797,13.0469043 16.5876671,16.8849281" id="路径"></path>
                    <path d="M21.8517364,24.6916823 L21.8517364,22.23202 C21.8517364,18.9762351 16.9970948,18.9762351 16.9970948,22.23202 L16.9970948,19.7723577 C16.9970948,16.5165729 12.1424531,16.5165729 12.1424531,19.7723577 L12.1424531,9.92182614 C12.1424531,6.66604128 7.28781145,6.66604128 7.28781145,9.92182614 C7.28781145,16.8255159 7.28781145,20.3902439 7.28781145,29.028768 C5.06520443,26.7711069 2.88938913,23.6460288 0.725271765,25.8442777 C-0.222260702,26.8067542 -0.222260702,28.3752345 0.725271765,29.3258286 L7.58025974,36.2889306 C8.10666667,36.8236398 8.8202405,37.025641 9.51041847,36.9662289 C10.2473882,37.025641 23.5245406,37.0137586 24.2615103,37.0137586 C25.5950746,37.0137586 26.6830665,35.9086929 26.6830665,34.5540963 C26.6830665,31.0131332 26.6830665,28.1138211 26.6830665,24.7035647 C26.7063781,21.4358974 21.8517364,21.4358974 21.8517364,24.6916823 Z" id="路径"></path>
                </g>
            </g>
        </g>
    </g>
</svg>